<?xml version="1.0" encoding="UTF-8"?>
<svg width="24px" height="24px" viewBox="0 0 24 24" version="1.1" xmlns="http://www.w3.org/2000/svg" xmlns:xlink="http://www.w3.org/1999/xlink" style="background: #131313;">
    <title>Icon/24px/Name icon/White</title>
    <g id="Icon/24px/Name-icon/White" stroke="none" stroke-width="1" fill="none" fill-rule="evenodd">
        <rect fill="#131313" x="0" y="0" width="24" height="24"></rect>
        <rect id="Invisible-frame" x="0" y="0" width="24" height="24"></rect>
        <path d="M8.5,4 C10.79498,4 12.71356,4.83783 14.19501,6.22216 L14.19501,6.22216 L11.88788,8.44427 C11.25641,7.83715 10.15143,7.13287 8.5,7.13287 C5.59784,7.13287 3.22998,9.53717 3.22998,12.5 C3.22998,15.46283 5.59784,17.86713 8.5,17.86713 C11.79749,17.86713 13.06897,15.55096 13.30109,14.28125 L13.30109,14.28125 L9,14.28125 L9,11.28125 L16.52643,11.28571 C17.35991,16.14626 14.34778,21 8.5,21 C3.80072,21 -1.0658141e-13,17.19928 -1.0658141e-13,12.5 C-1.0658141e-13,7.80072 3.80072,4 8.5,4 Z M22,9.28125 L22,11.28125 L24,11.28125 L24,13.28125 L22,13.28125 L22,15.28125 L20,15.28125 L20,13.28125 L18,13.28125 L18,11.28125 L20,11.28125 L20,9.28125 L22,9.28125 Z" id="Combined-Shape" fill="#FFFFFF"></path>
    </g>
</svg>