<?xml version="1.0" encoding="UTF-8"?>
<svg width="64px" height="64px" viewBox="0 0 64 64" version="1.1" xmlns="http://www.w3.org/2000/svg" xmlns:xlink="http://www.w3.org/1999/xlink">
    <title>Icon/64px/5</title>
    <g id="Icon/64px/5" stroke="none" stroke-width="1" fill="none" fill-rule="evenodd">
        <rect id="Invisible-frame" opacity="0.100000001" x="0" y="0" width="64" height="64"></rect>
        <rect id="Rectangle" fill="#AB7DF6" opacity="0.100000001" x="0" y="0" width="64" height="64" rx="16"></rect>
        <path d="M35,37.00025 C35.552,37.00025 36,37.44725 36,38.00025 L36,38.00025 L36,41.00025 L38,41.00025 L38,43.00025 L20,43.00025 L20,41.00025 L22,41.00025 L22,38.00025 C22,37.44725 22.448,37.00025 23,37.00025 L23,37.00025 Z M25,33.00025 L25,35.00025 L20,35.00025 L20,33.00025 L25,33.00025 Z M37.293,20.29325 C37.684,19.90225 38.316,19.90225 38.707,20.29325 L38.707,20.29325 L41.707,23.29325 C42.098,23.68425 42.098,24.31625 41.707,24.70725 L41.707,24.70725 L38.768,27.64625 L43.06,31.94025 L40.939,34.06125 L36.646,29.76825 L33.707,32.70725 C33.512,32.90225 33.256,33.00025 33,33.00025 C32.744,33.00025 32.488,32.90225 32.293,32.70725 L32.293,32.70725 L29.293,29.70725 C28.902,29.31625 28.902,28.68425 29.293,28.29325 L29.293,28.29325 Z M23.6374671,26.2220091 L27.1724671,29.7585091 L25.7578671,31.1725091 L22.2228671,27.6360091 L23.6374671,26.2220091 Z" id="Combined-Shape" fill="#AB7DF6"></path>
    </g>
</svg>