<?xml version="1.0" encoding="UTF-8"?>
<svg width="64px" height="64px" viewBox="0 0 64 64" version="1.1" xmlns="http://www.w3.org/2000/svg" xmlns:xlink="http://www.w3.org/1999/xlink">
    <title>Icon/64px/6</title>
    <g id="Icon/64px/6" stroke="none" stroke-width="1" fill="none" fill-rule="evenodd">
        <rect id="Invisible-frame" opacity="0.100000001" x="0" y="0" width="64" height="64"></rect>
        <rect id="Rectangle" fill="#0093EE" opacity="0.100000001" x="0" y="0" width="64" height="64" rx="16"></rect>
        <path d="M41,25 C42.6568542,25 44,26.3431458 44,28 L44,41 C44,42.6568542 42.6568542,44 41,44 L23,44 C21.3431458,44 20,42.6568542 20,41 L20,28 C20,26.3431458 21.3431458,25 23,25 L41,25 Z M42,30 L22,30 L22,41 C22,41.5522847 22.4477153,42 23,42 L41,42 C41.5522847,42 42,41.5522847 42,41 L42,30 Z M28,37 L28,40 L24,40 L24,37 L28,37 Z M34,37 L34,40 L30,40 L30,37 L34,37 Z M28,32 L28,35 L24,35 L24,32 L28,32 Z M34,32 L34,35 L30,35 L30,32 L34,32 Z M40,32 L40,35 L36,35 L36,32 L40,32 Z M38,21 C38.5522847,21 39,21.4477153 39,22 L39,22 L39,24 L37,24 L37,22 C37,21.4477153 37.4477153,21 38,21 Z M26,21 C26.5522847,21 27,21.4477153 27,22 L27,22 L27,24 L25,24 L25,22 C25,21.4477153 25.4477153,21 26,21 Z" id="Combined-Shape" fill="#0093EE"></path>
    </g>
</svg>