<?xml version="1.0" encoding="UTF-8"?>
<svg width="24px" height="24px" viewBox="0 0 24 24" version="1.1" xmlns="http://www.w3.org/2000/svg" xmlns:xlink="http://www.w3.org/1999/xlink">
    <title>Icon/Basic/Control</title>
    <defs>
        <path d="M10.0303087,19 C10.0303087,19 7.81106595,17.3012618 7.03030885,16 C6.24955176,14.6987382 4.77005657,13.0410095 5.03030896,12 C5.29056133,10.9589905 6.24955175,10.6309149 7.03030893,11.4116721 C7.81106615,12.1924292 8.33700745,13.8840694 8.85751229,13.623817 C9.37801713,13.3635647 8.9876383,10.8911672 8.46713374,9.45977918 C7.94662912,8.0283912 7.40395853,5.00000017 8.46713373,5 C9.53030893,4.99999991 9.53030872,6 10.0303087,7.5 C10.5303087,8.99999999 10.1399301,10.9999993 10.5303087,11 C10.9206874,11.0000006 11.0696572,10.6506308 11.0696573,10 C11.0696574,9.82318548 11.1043246,9.67374541 11.1747111,9.54985954 C11.3633284,9.21787805 11.8084456,9.06940091 12.5303087,9.06940079 C13.5215502,9.06940079 13.0303087,11.0000001 13.5303087,11 C14.0303087,11 14.0303091,11.0410094 14.0303087,10 C14.0303083,8.95899063 14.493948,9.06940096 15.493948,9.06940079 C16.493948,9.06940079 16.0098044,10.9999999 16.5303087,11 C17.0508131,11.0000001 16.5303087,10.0000001 17.0303087,10 C17.5303087,10 18.0303081,10.1577286 18.0303087,12.5 C18.0303093,14.8422714 18.3110662,14.9589904 17.5303087,16 C16.7495512,17.0410096 16.0303087,18 16.0303087,18 C16.0303087,18 16.0303087,19 15.493948,19 C14.9575872,19.0000001 14.68094,17.9999999 14.0303087,18 C13.3796774,18.0000001 13.0303087,19 13.0303087,19 L10.0303087,19 Z M16.030309,17 L16.030309,13 L15.030309,13 L15.030309,17 L16.030309,17 Z M13.030309,16 C13.030309,16.2708838 13.2622426,17 13.530309,17 C13.8064513,17 14.030309,16.2754211 14.030309,16 L14.030309,14 C14.030309,13.7291162 13.7983754,13 13.530309,13 C13.2541666,13 13.030309,13.7245789 13.030309,14 L13.030309,16 Z M11.030309,16 C11.030309,16.2708838 11.2622426,17 11.530309,17 C11.8064513,17 12.030309,16.2754211 12.030309,16 L12.030309,14 C12.030309,13.7291162 11.7983754,13 11.530309,13 C11.2541666,13 11.030309,13.7245789 11.030309,14 L11.030309,16 Z" id="path-1"></path>
        <filter x="-34.3%" y="-24.0%" width="168.7%" height="163.3%" filterUnits="objectBoundingBox" id="filter-2">
            <feMorphology radius="1" operator="dilate" in="SourceAlpha" result="shadowSpreadOuter1"></feMorphology>
            <feOffset dx="0" dy="1" in="shadowSpreadOuter1" result="shadowOffsetOuter1"></feOffset>
            <feGaussianBlur stdDeviation="1" in="shadowOffsetOuter1" result="shadowBlurOuter1"></feGaussianBlur>
            <feComposite in="shadowBlurOuter1" in2="SourceAlpha" operator="out" result="shadowBlurOuter1"></feComposite>
            <feColorMatrix values="0 0 0 0 0   0 0 0 0 0   0 0 0 0 0  0 0 0 1 0" type="matrix" in="shadowBlurOuter1"></feColorMatrix>
        </filter>
    </defs>
    <g id="Icon/Basic/Control" stroke="none" stroke-width="1" fill="none" fill-rule="evenodd">
        <g id="Pointer">
            <use fill="black" fill-opacity="1" filter="url(#filter-2)" xlink:href="#path-1"></use>
            <path stroke="#000000" stroke-width="1" d="M16.6541549,9.78085817 C16.6055551,9.5254468 16.5349863,9.28042976 16.4203145,9.09182589 C16.2283442,8.77608704 15.9405561,8.56940079 15.2368934,8.56760884 C14.6254232,8.56107653 14.224167,8.61519215 13.9650861,8.81629386 C13.804819,8.94069506 13.6675365,9.11878883 13.5921734,9.41911723 C13.5557416,9.30274046 13.5111063,9.19459676 13.4555376,9.10039488 C13.2660361,8.77914577 12.9786302,8.56940079 12.5303087,8.56940079 C12.0314408,8.56940087 11.6430245,8.64463742 11.3261709,8.8465088 C11.1368414,8.96713293 10.9668213,9.13326985 10.8109694,9.41915023 C10.7877994,8.76256388 10.7261162,8.00628371 10.5046504,7.34188611 C10.4021514,7.03438913 10.3213429,6.74840402 10.2477816,6.4885468 C10.0666231,5.84859978 9.9064384,5.35406318 9.64993084,5.03337038 C9.39624208,4.71620174 9.0892214,4.46450049 7.91559125,4.67112553 C7.77395842,4.77069006 7.6529064,4.9137418 7.56174063,5.10252507 C7.42700131,5.38153911 7.35672873,5.78714788 7.35672873,6.26400792 C7.35672873,7.31913183 7.67963299,8.75723944 7.99723701,9.63065068 C8.26633702,10.3706759 8.49875309,11.4022804 8.57652553,12.2318532 C8.60768439,12.5642143 8.61528041,12.86159 8.81177038,13.140189 C8.65165087,12.9780031 8.49099152,12.6886522 8.30910174,12.3785173 C8.03620256,11.913205 7.73053334,11.4047897 7.38386229,11.0581187 C7.13372804,10.8079844 6.86762852,10.6477344 6.60692796,10.5610944 C6.29631067,10.4578652 5.98913754,10.4560824 5.70695303,10.5390909 C5.19044507,10.6910289 4.73034815,11.1382904 4.54523771,11.8787322 C4.32874355,12.7447087 5.08634984,14.0174087 5.92168586,15.2293932 C6.16626917,15.5842577 6.40645145,15.932063 6.60156239,16.2572479 C7.41649493,17.6154688 9.72639516,19.3970347 9.86278431,19.5 L13.5023307,19.1649097 C13.5023307,19.1649097 13.6207648,18.5000001 14.0303088,18.5 C14.2332953,18.5 14.3381508,18.7248378 14.4586651,18.8637774 C14.7828406,19.2375156 15.1153075,19.5000001 15.4939481,19.5 C15.6884146,19.5 15.8519992,19.4421581 16.3120084,18.9770727 C16.4482704,18.7230235 16.499624,18.3864049 16.5188792,18.181906 L17.9303087,16.3 C18.6033067,15.4026697 18.6106361,15.1073402 18.5618335,13.8750842 C18.5478712,13.5225382 18.5303089,13.0806356 18.5303087,12.4999999 C18.5303084,11.398649 18.4163087,10.7417791 18.2583351,10.3468451 C18.1266425,10.0176136 17.9564268,9.82778971 17.7831287,9.70696006 C17.5751767,9.56196848 17.3486473,9.51090936 16.6541549,9.78085817 Z" fill="#FFFFFF" fill-rule="evenodd"></path>
        </g>
    </g>
</svg>