<?xml version="1.0" encoding="UTF-8"?>
<svg width="16px" height="16px" viewBox="0 0 16 16" version="1.1" xmlns="http://www.w3.org/2000/svg" xmlns:xlink="http://www.w3.org/1999/xlink">
    <title>Icon/16px/Register/Black</title>
    <g id="Icon/16px/Register/Black" stroke="none" stroke-width="1" fill="none" fill-rule="evenodd">
        <rect id="Invisible-frame" x="0" y="0" width="16" height="16"></rect>
        <path d="M15.738,1.13623022 C15.5726667,1.01089689 15.3593333,0.969563556 15.158,1.02289689 L8,2.97489689 L0.842,1.02289689 C0.641333333,0.969563556 0.427333333,1.01023022 0.262,1.13623022 C0.0973333333,1.26289689 0,1.45823022 0,1.66623022 L0,12.9995636 C0,13.3002302 0.201333333,13.5635636 0.491333333,13.6428969 L7.82466667,15.6428969 C7.882,15.6582302 7.94133333,15.6662302 8,15.6662302 C8.05866667,15.6662302 8.118,15.6582302 8.17533333,15.6428969 L15.5086667,13.6428969 C15.7986667,13.5635636 16,13.3002302 16,12.9995636 L16,1.66623022 C16,1.45823022 15.9026667,1.26289689 15.738,1.13623022 Z M6.468,12.5088969 L2.51466667,11.4308969 L2.86533333,10.1442302 L6.81866667,11.2222302 L6.468,12.5088969 Z M6.468,9.51489689 L2.51466667,8.43689689 L2.86533333,7.15023022 L6.81866667,8.22823022 L6.468,9.51489689 Z M6.468,6.70356356 L2.51466667,5.62556356 L2.86533333,4.33889689 L6.81866667,5.41689689 L6.468,6.70356356 Z M9.532,12.5088969 L9.18133333,11.2222302 L13.1346667,10.1442302 L13.4853333,11.4308969 L9.532,12.5088969 Z M9.532,9.51489689 L9.18133333,8.22823022 L13.1346667,7.15023022 L13.4853333,8.43689689 L9.532,9.51489689 Z M9.532,6.70356356 L9.18133333,5.41689689 L13.1346667,4.33889689 L13.4853333,5.62556356 L9.532,6.70356356 Z" id="Shape" fill="#DD223F"></path>
    </g>
</svg>