<?xml version="1.0" encoding="UTF-8"?>
<svg width="24px" height="24px" viewBox="0 0 24 24" version="1.1" xmlns="http://www.w3.org/2000/svg" xmlns:xlink="http://www.w3.org/1999/xlink" style="background: #131313;">
    <title>Icon/24px/Facebook/White</title>
    <g id="Icon/24px/Facebook/White" stroke="none" stroke-width="1" fill="none" fill-rule="evenodd">
        <rect fill="#131313" x="0" y="0" width="24" height="24"></rect>
        <rect id="Invisible-frame" x="0" y="0" width="24" height="24"></rect>
        <path d="M20.3333333,2 L3.66666667,2 C2.74583333,2 2,2.74583333 2,3.66666667 L2,20.3333333 C2,21.2541667 2.74583333,22 3.66666667,22 L12.8333333,22 L12.8333333,14.5 L10.3333333,14.5 L10.3333333,11.1666667 L12.8333333,11.1666667 L12.8333333,9.01083333 C12.8333333,6.4275 14.4108333,5.02083333 16.7158333,5.02083333 C17.82,5.02083333 18.7683333,5.10333333 19.045,5.14 L19.045,7.84 L17.4466667,7.84083333 C16.1933333,7.84083333 15.9508333,8.43666667 15.9508333,9.31 L15.9508333,11.1666667 L19.6508333,11.1666667 L18.8175,14.5 L15.9508333,14.5 L15.9508333,22 L20.3333333,22 C21.2541667,22 22,21.2541667 22,20.3333333 L22,3.66666667 C22,2.74583333 21.2541667,2 20.3333333,2 Z" id="Path" fill="#FFFFFF"></path>
    </g>
</svg>